<?xml version="1.0" encoding="utf-8"?>
<!-- Generator: Adobe Illustrator 23.0.1, SVG Export Plug-In . SVG Version: 6.00 Build 0)  -->
<svg version="1.1" id="Layer_1" xmlns="http://www.w3.org/2000/svg" xmlns:xlink="http://www.w3.org/1999/xlink" x="0px" y="0px"
	 viewBox="0 0 1366 260" style="enable-background:new 0 0 1366 260;" xml:space="preserve">
<style type="text/css">
	.st0{fill:#96C5EA;}
	.st1{fill:#F59292;}
</style>
<polygon class="st0" points="348.8,259.3 579.5,0 550.6,0 319.9,259.3 "/>
<polygon class="st0" points="168.9,257.5 397.9,0 369,0 139.9,257.5 "/>
<polygon class="st0" points="220.8,261.5 453.4,0 424.5,0 191.9,261.5 "/>
<polygon class="st0" points="521.4,0 492.5,0 261.8,259.3 290.7,259.3 "/>
<polygon class="st1" points="385.5,257.3 154.9,-2 183.8,-2 414.5,257.3 "/>
<polygon class="st1" points="565.5,255.5 336.5,-2 365.4,-2 594.4,255.5 "/>
<polygon class="st1" points="513.5,259.5 281,-2 309.9,-2 542.5,259.5 "/>
<polygon class="st1" points="213,-2 241.9,-2 472.5,257.3 443.6,257.3 "/>
</svg>
